<svg xmlns="http://www.w3.org/2000/svg" viewBox="0 0 1200 1800"><defs><linearGradient id="b" x1="0" y1="0" x2="0" y2="1"><stop stop-color="#1b1117"/><stop offset=".55" stop-color="#6e231c"/><stop offset="1" stop-color="#1a1012"/></linearGradient><linearGradient id="s"><stop stop-color="#ffb45e"/><stop offset=".6" stop-color="#c84e2f"/><stop offset="1" stop-color="#2e2027"/></linearGradient></defs><rect width="1200" height="1800" fill="url(#b)"/><circle cx="265" cy="320" r="260" fill="#ff7a2a" opacity=".17"/><path d="M0 1260 180 1120 360 1190 520 1000 740 1140 930 930 1200 1080v720H0z" fill="#281518"/><g transform="translate(160 235)"><path d="M180 1015Q180 700 360 560T720 620Q865 760 780 1010T510 1280Q270 1300 180 1015Z" fill="url(#s)"/><ellipse cx="485" cy="565" rx="230" ry="195" fill="#de7041"/><path d="M290 480Q235 250 365 220L420 470Z" fill="#6f302d"/><path d="M675 480Q735 260 610 220L550 470Z" fill="#6f302d"/><path d="M322 410Q420 210 510 395Q590 215 665 430L585 520H380Z" fill="#ffad46"/><path d="M350 420Q430 270 500 405Q565 275 625 435L570 485H395Z" fill="#5f2b2c"/><ellipse cx="425" cy="565" rx="38" ry="48" fill="#17151a"/><ellipse cx="555" cy="565" rx="38" ry="48" fill="#17151a"/><circle cx="438" cy="548" r="11" fill="white"/><circle cx="568" cy="548" r="11" fill="white"/><path d="M472 618h35l-18 22z" fill="#32191e"/><path d="M450 652Q490 680 535 648" fill="none" stroke="#6b2724" stroke-width="11" stroke-linecap="round"/><path d="M275 780Q135 910 220 1115" fill="none" stroke="#b94a30" stroke-width="80" stroke-linecap="round"/><path d="M700 790Q860 905 780 1120" fill="none" stroke="#b94a30" stroke-width="80" stroke-linecap="round"/><path d="M320 1160 260 1420 390 1425 455 1180Z" fill="#d56038"/><path d="M600 1170 665 1420 795 1410 690 1145Z" fill="#d56038"/><g fill="#ffb04a"><path d="M260 705 200 610 255 595 300 655Z"/><path d="M710 700 780 610 725 590 675 650Z"/><path d="M380 875 315 805 365 770 420 830Z"/><path d="M590 865 660 800 615 765 555 820Z"/></g></g></svg>